<?xml version="1.0" encoding="UTF-8"?>
<svg version="1.1" xmlns="http://www.w3.org/2000/svg" width="512" height="512">
<path d="M0 0 C1.59595753 0.79437968 3.1923478 1.58789044 4.78913093 2.38060927 C9.16467713 4.55602347 13.53391563 6.74384517 17.90219164 8.93381333 C22.61844097 11.29553805 27.34041681 13.64576282 32.06164551 15.99751282 C41.30478563 20.60411442 50.5424349 25.2216233 59.77807739 29.84323534 C67.28334485 33.59878135 74.79040681 37.35071612 82.29875946 41.10009003 C83.36738588 41.63373143 84.43601229 42.16737283 85.53702132 42.71718518 C87.70789902 43.80125242 89.87877856 44.88531596 92.04965994 45.96937582 C112.40383931 56.13416541 132.75156162 66.31182691 153.09730718 76.49348447 C171.71694768 85.81085941 190.34440682 95.11247883 208.97564533 104.40663734 C228.10449082 113.94919321 247.22814889 123.50206842 266.34617209 133.06628871 C277.08035414 138.43608475 287.81653438 143.80178938 298.5581131 149.15677643 C307.69979016 153.71431927 316.83651339 158.28161148 325.96695355 162.86162719 C330.62630907 165.19852176 335.28781201 167.53083552 339.95549011 169.8510685 C344.2273298 171.97468572 348.49250837 174.11109534 352.75272247 176.25793514 C354.29584839 177.0327164 355.84135945 177.80276887 357.38943294 178.56761661 C359.49263911 179.60761105 361.58648548 180.66448167 363.67889786 181.72598648 C365.42759654 182.60037506 365.42759654 182.60037506 367.21162248 183.49242806 C371.26703077 186.09521804 374.11362465 189.10548416 376.29730225 193.47283936 C376.79543353 198.92778523 377.00847251 203.84307416 374.79730225 208.91033936 C367.84660907 216.03479986 357.69922655 219.91680094 348.88017273 224.31848145 C347.30241634 225.10958782 345.72483211 225.90103761 344.14740473 226.69279981 C339.82539124 228.86087714 335.50090161 231.02397338 331.17596853 233.18621945 C326.50716502 235.52144696 321.84065037 237.86124045 317.17381287 240.20039368 C306.97796992 245.30972409 296.77915643 250.41310505 286.57975841 255.51533413 C280.21179926 258.70094321 273.84449398 261.8878576 267.47732735 265.07505035 C249.84723516 273.89987508 232.21651458 282.72344078 214.58309078 291.5416069 C212.89171239 292.38743678 212.89171239 292.38743678 211.16616473 293.25035413 C208.88034176 294.39344873 206.59451828 295.53654232 204.3086943 296.6796349 C203.17402427 297.24706131 202.03935425 297.81448773 200.87030029 298.39910889 C199.16621831 299.25128529 199.16621831 299.25128529 197.42771042 300.12067738 C178.99951823 309.33654618 160.57604546 318.56180719 142.15462189 327.79119703 C123.24055602 337.26725415 104.32276924 346.73584627 85.4011479 356.1968081 C74.77758414 361.50888255 64.1556316 366.82412373 53.53773308 372.14751434 C44.50187172 376.67767836 35.46261974 381.20098507 26.41884606 385.71533409 C21.80383774 388.01924499 17.1905171 390.32638093 12.58148193 392.64222145 C8.36364742 394.76140153 4.14131899 396.87132721 -0.08480411 398.97392705 C-1.61401941 399.73678124 -3.14154644 400.50303097 -4.6672026 401.27297851 C-6.73960716 402.31822857 -8.81778979 403.35097813 -10.89787388 404.3808403 C-12.62801994 405.24652417 -12.62801994 405.24652417 -14.39311844 406.12969661 C-20.61645914 408.65534538 -25.43458821 408.86942641 -31.6206665 406.55096436 C-35.96893646 404.29932738 -37.98031636 400.98327319 -40.07769775 396.59783936 C-41.88226285 387.57501386 -37.58363478 379.07354879 -34.44488525 370.78533936 C-33.90355818 369.33673782 -33.36300169 367.88784812 -32.82316589 366.43869019 C-31.38244857 362.57764436 -29.93118454 358.72064439 -28.47778702 354.86435699 C-26.97057471 350.85972659 -25.47323831 346.85140733 -23.97491455 342.84344482 C-21.33729502 335.79198842 -18.69185005 328.74350448 -16.04200459 321.69663429 C-13.74416974 315.58534412 -11.45403553 309.47119438 -9.1675415 303.35565186 C-7.38181975 298.57979864 -5.59468726 293.80453929 -3.79449463 289.03411865 C-1.05506895 281.77251727 1.65919711 274.50344108 4.31599426 267.21112061 C5.68065712 263.46901564 7.05545116 259.73066873 8.43099976 255.99255371 C9.08284893 254.21237514 9.72978586 252.43038878 10.37136841 250.64648438 C11.25350609 248.19452309 12.15244211 245.74933258 13.05511475 243.30487061 C13.30969955 242.58297043 13.56428436 241.86107025 13.82658386 241.11729431 C15.56467441 236.47802484 17.51510118 233.65182292 21.29730225 230.47283936 C24.50531006 229.436203 24.50531006 229.436203 28.25042725 228.83782959 C29.30363159 228.66044974 29.30363159 228.66044974 30.37811279 228.47948647 C32.76515192 228.08207483 35.155814 227.71355376 37.54730225 227.34393311 C39.29730927 227.05774614 41.04697355 226.76945703 42.79632568 226.47929382 C46.74175721 225.82755664 50.68883676 225.1871638 54.637146 224.55310059 C61.8634744 223.3876014 69.08053971 222.1691314 76.29730225 220.94598389 C78.97022063 220.49323065 81.64316018 220.04060246 84.31610107 219.58798218 C84.99039311 219.4737717 85.66468515 219.35956123 86.35941029 219.24188983 C93.98705805 217.95056548 101.61671218 216.67124452 109.246521 215.39276123 C110.65518714 215.15667635 112.06385312 214.92059046 113.47251892 214.68450356 C115.59871966 214.3281803 117.72492386 213.97187779 119.85113621 213.61562383 C127.11926757 212.39779146 134.38711527 211.17827003 141.65494919 209.95866406 C156.53543779 207.46162417 171.41625228 204.96653178 186.29730225 202.47283936 C186.62730225 200.82283936 186.95730225 199.17283936 187.29730225 197.47283936 C182.74892674 196.10866414 178.31201344 195.03976096 173.6182251 194.26545715 C172.98423247 194.15969264 172.35023984 194.05392813 171.69703531 193.94495863 C169.59370298 193.59503333 167.4894701 193.25087087 165.38519287 192.90667725 C163.86838177 192.65546969 162.35163431 192.40387766 160.83494568 192.15193176 C157.5789178 191.61174106 154.32250433 191.07396062 151.06578064 190.53798103 C145.91246103 189.68954139 140.76036132 188.83385331 135.60845947 187.97685242 C120.96178609 185.54151375 106.31364857 183.11507841 91.66400146 180.69769287 C83.56534793 179.36124291 75.46778258 178.01838676 67.37133741 176.668621 C62.25385416 175.81586637 57.13514339 174.97105624 52.01537323 174.13214695 C48.82703371 173.60778594 45.63997512 173.07594684 42.45322609 172.54201317 C40.97957724 172.29663614 39.505418 172.05430113 38.03072166 171.81529999 C20.42459073 168.957935 20.42459073 168.957935 16.88798523 164.82647705 C16.63626053 164.22057739 16.38453583 163.61467773 16.12518311 162.99041748 C15.82103485 162.28151367 15.5168866 161.57260986 15.20352173 160.84222412 C14.9044693 160.06032715 14.60541687 159.27843018 14.29730225 158.47283936 C13.96690948 157.63744629 13.63651672 156.80205322 13.29611206 155.94134521 C12.17797218 153.03713318 11.11047209 150.11777601 10.0512085 147.19158936 C9.64776215 146.08971786 9.2443158 144.98784637 8.8286438 143.85258484 C7.95734642 141.47198678 7.08807053 139.09064809 6.22061157 136.70864868 C4.12511869 130.95592366 2.0166836 125.20795829 -0.09222984 119.46014214 C-0.57920611 118.1327734 -1.06602258 116.80534602 -1.55268288 115.4778614 C-6.45012974 102.11994995 -11.4237607 88.79151143 -16.42697144 75.47283936 C-17.75670648 71.93294402 -19.08470022 68.39239928 -20.41241455 64.85174561 C-23.8311793 55.7401784 -27.25212728 46.62973114 -30.73051453 37.54072571 C-31.88423281 34.52592618 -33.03256 31.50908652 -34.18069458 28.49215698 C-34.91970072 26.55914922 -35.66831818 24.63008067 -36.41778564 22.70111084 C-42.26765846 7.33682126 -42.26765846 7.33682126 -38.7769165 -0.70294189 C-36.26564843 -4.96753168 -32.82550222 -7.03990588 -28.39019775 -8.96466064 C-18.13692981 -10.52871847 -8.85484315 -4.45818528 0 0 Z " fill="#000000" transform="translate(87.70269775390625,56.52716064453125)"/>
</svg>
